#N canvas 827 239 734 565 12;
#X obj 512 70 adc~;
#X obj 295 386 dac~;
#X obj 345 202 change;
#X obj 357 241 tgl 19 0 empty empty empty 0 -10 0 12 #fcfcfc #000000 #000000 0 1;
#X obj 533 201 change;
#X obj 537 235 tgl 19 0 empty empty empty 0 -10 0 12 #fcfcfc #000000 #000000 0 1;
#X obj 534 169 r sw0_press @hv_param;
#X obj 346 170 r sw1_press @hv_param;
#X obj 704 272 *~;
#X obj 332 285 *~;
#X obj 545 443 r 1-samplelength;
#X floatatom 545 469 7 0 0 0 - - - 24;
#X obj 542 514 / 48000;
#X obj 536 869 tabread4~ 1-poly_grain-L;
#X obj 552 633 phasor~;
#X obj 530 914 dac~;
#X floatatom 542 540 5 0 0 0 - - - 12;
#X obj 538 599 /;
#X obj 559 665 *~;
#X obj 626 644 r 1-samplelength;
#X obj 547 565 t b f;
#X msg 496 566 1;
#X floatatom 510 641 5 0 0 0 - - - 12;
#X floatatom 583 590 5 0 0 0 - - - 12;
#X obj 633 794 change;
#X obj 645 833 tgl 19 0 empty empty empty 0 -10 0 12 #fcfcfc #000000 #000000 0 1;
#X obj 634 762 r sw1_press @hv_param;
#X obj 562 818 *~;
#X connect 0 0 9 0;
#X connect 0 1 8 0;
#X connect 2 0 3 0;
#X connect 3 0 9 1;
#X connect 4 0 5 0;
#X connect 5 0 8 1;
#X connect 6 0 4 0;
#X connect 7 0 2 0;
#X connect 8 0 1 1;
#X connect 9 0 1 0;
#X connect 10 0 11 0;
#X connect 11 0 12 0;
#X connect 12 0 16 0;
#X connect 13 0 15 0;
#X connect 13 0 15 1;
#X connect 14 0 18 0;
#X connect 16 0 20 0;
#X connect 17 0 14 0;
#X connect 17 0 22 0;
#X connect 18 0 27 0;
#X connect 19 0 18 1;
#X connect 20 0 21 0;
#X connect 20 1 17 1;
#X connect 21 0 17 0;
#X connect 23 0 14 0;
#X connect 24 0 25 0;
#X connect 25 0 27 1;
#X connect 26 0 24 0;
#X connect 27 0 13 0;
