#N canvas 827 239 734 565 12;
#X floatatom 530 155 5 0 0 0 - - - 12;
#X obj 721 98 hsl 162 19 0 1 0 0 empty empty empty -2 -10 0 12 #fcfcfc #000000 #000000 0 1;
#X obj 222 211 change;
#X obj 244 305 tgl 19 0 empty empty empty 0 -10 0 12 #fcfcfc #000000 #000000 0 1;
#X obj 223 179 r sw0_press @hv_param;
#X obj 283 214 loadbang;
#X msg 284 254 0;
#X obj 651 328 osc~;
#X obj 556 221 * 40;
#X obj 556 247 + 30;
#X obj 556 273 mtof;
#X obj 645 427 *~;
#X obj 645 364 *~ 0.4;
#X obj 645 504 dac~;
#X obj 530 118 r knob2 @hv_param;
#X floatatom 1017 168 5 0 0 0 - - - 12;
#X obj 1208 111 hsl 162 19 0 1 0 0 empty empty empty -2 -10 0 12 #fcfcfc #000000 #000000 0 1;
#X obj 709 224 change;
#X obj 731 318 tgl 19 0 empty empty empty 0 -10 0 12 #fcfcfc #000000 #000000 0 1;
#X obj 770 227 loadbang;
#X msg 771 267 0;
#X obj 1138 341 osc~;
#X obj 1043 234 * 40;
#X obj 1043 286 mtof;
#X obj 1132 440 *~;
#X obj 1132 377 *~ 0.4;
#X obj 1132 517 dac~;
#X obj 1017 131 r knob2 @hv_param;
#X obj 710 192 r sw1_press @hv_param;
#X obj 1043 260 + 60;
#X obj 760 399 adc~;
#X connect 0 0 8 0;
#X connect 1 0 0 0;
#X connect 2 0 3 0;
#X connect 3 0 11 1;
#X connect 4 0 2 0;
#X connect 5 0 6 0;
#X connect 6 0 3 0;
#X connect 7 0 12 0;
#X connect 8 0 9 0;
#X connect 9 0 10 0;
#X connect 10 0 7 0;
#X connect 11 0 13 0;
#X connect 11 0 13 1;
#X connect 12 0 11 0;
#X connect 14 0 0 0;
#X connect 15 0 22 0;
#X connect 16 0 15 0;
#X connect 17 0 18 0;
#X connect 18 0 24 1;
#X connect 19 0 20 0;
#X connect 20 0 18 0;
#X connect 21 0 25 0;
#X connect 22 0 29 0;
#X connect 23 0 21 0;
#X connect 24 0 26 0;
#X connect 24 0 26 1;
#X connect 25 0 24 0;
#X connect 27 0 15 0;
#X connect 28 0 17 0;
#X connect 29 0 23 0;
