#N canvas 827 239 734 565 12;
#X floatatom 446 259 5 0 0 0 - - - 12;
#N canvas 0 22 450 300 (subpatch) 0;
#X array tabread_test 10 float 3;
#A 0 2.5 4.9 7.45 8 5.35 3 4.85 7.45 7.05 4.45;
#X coords 0 10 10 0 250 200 1 0 0;
#X restore 591 146 graph;
#X obj 354 417 tabread4~ tabread_test;
#X obj 342 298 sig~;
#X obj 350 196 loadbang;
#X obj 365 500 mtof~;
#X obj 365 526 osc~;
#X obj 365 589 *~ 0.5;
#X obj 370 637 dac~;
#X obj 354 466 +~ 50;
#X msg 352 245 0;
#X obj 440 304 * 10;
#X obj 465 353 sig~;
#X obj 446 229 r knob1 @hv_param;
#X text 595 456 This doesn't work... (on Daisy/Heavy);
#X connect 0 0 11 0;
#X connect 2 0 9 0;
#X connect 3 0 2 0;
#X connect 4 0 10 0;
#X connect 5 0 6 0;
#X connect 6 0 7 0;
#X connect 7 0 8 0;
#X connect 7 0 8 1;
#X connect 9 0 5 0;
#X connect 10 0 3 0;
#X connect 11 0 12 0;
#X connect 12 0 2 1;
#X connect 13 0 0 0;
